<svg viewBox="0 0 500 500" width="500" height="500" xmlns="http://www.w3.org/2000/svg">
  <path fill="currentColor" d="M 400.792 86.693 C 400.792 49.682 370.466 15.258 333.748 15.258 C 297.029 15.258 262.606 44.706 262.606 81.424 C 262.606 111.663 286.598 141.557 314.178 149.615 C 316.022 162.99 308.64 204.613 306.797 210.713 C 300.884 230.286 265.549 242.495 235.726 245.237 C 212.3 247.397 188.042 249.723 168.188 259.276 L 168.188 139.651 C 195.187 131.178 214.709 106.006 214.709 76.266 C 214.709 39.548 184.969 9.808 148.25 9.808 C 111.532 9.808 81.792 39.548 81.792 76.266 C 81.792 106.006 101.314 131.178 128.313 139.651 L 128.313 305.215 C 101.314 313.772 81.792 338.943 81.792 368.683 C 81.792 405.401 111.532 435.141 148.25 435.141 C 184.969 435.141 214.709 405.401 214.709 368.683 C 214.709 340.438 197.097 316.264 172.175 306.711 C 174.751 302.391 178.655 298.569 184.553 295.579 C 198.011 288.767 218.115 286.939 239.464 284.946 C 274.521 281.706 315.218 271.578 335.315 240.109 C 345.481 224.19 354.893 173.675 352.966 150.624 C 379.217 141.652 400.792 115.935 400.792 86.693 Z M 148.25 62.975 C 155.561 62.975 161.542 68.956 161.542 76.266 C 161.542 83.577 155.561 89.558 148.25 89.558 C 140.94 89.558 134.959 83.577 134.959 76.266 C 134.959 68.956 140.94 62.975 148.25 62.975 Z M 148.25 381.975 C 140.94 381.975 134.959 375.993 134.959 368.683 C 134.959 361.373 140.94 355.391 148.25 355.391 C 155.561 355.391 161.542 361.373 161.542 368.683 C 161.542 375.993 155.561 381.975 148.25 381.975 Z M 333.748 69.595 C 342.173 69.362 348.211 76.749 348.211 84.059 C 348.211 91.369 340.766 99.107 333.456 99.107 C 326.145 99.107 317.647 94.034 318.114 84.058 C 318.581 74.082 325.323 69.828 333.748 69.595 Z" transform="matrix(0, 1, -1, 0, 463.766479, -18.817513)"/>
</svg>