<svg viewBox="0 0 500 500" width="500" height="500" xmlns="http://www.w3.org/2000/svg">
  <!-- Font Awesome Free 5.15.3 by @fontawesome - https://fontawesome.com License - https://fontawesome.com/license/free (Icons: CC BY 4.0, Fonts: SIL OFL 1.1, Code: MIT License) -->
  <path fill="currentColor" d="M 249.917 22.487 C 182.392 22.487 104.875 31.544 60.631 67.49 C 16.387 103.437 5.417 166.275 5.417 221.144 C 5.417 244.83 14.918 284.784 24.277 305.808 C 33.637 326.831 38.172 337.706 55.172 354.754 C 49.203 378.822 44.142 394.259 32.61 411.056 C 21.077 427.854 7.757 437.23 7.518 437.469 C 6.468 438.567 5.799 439.928 5.548 441.372 C 5.297 442.817 5.464 444.345 6.085 445.778 C 6.706 447.21 7.685 448.356 8.891 449.144 C 10.097 449.932 11.53 450.362 13.058 450.362 C 44.719 450.362 84.418 436.914 107.137 426.982 C 129.856 417.049 135.595 410.631 147.342 401.271 C 162.957 407.145 179.432 411.777 196.588 414.941 C 213.743 418.105 231.58 419.8 249.917 419.8 C 317.442 419.8 397.888 419.527 442.131 383.58 C 486.375 347.633 494.417 276.013 494.417 221.144 C 494.417 166.275 479.056 104.022 434.812 68.075 C 390.569 32.129 317.442 22.487 249.917 22.487 Z M 127.667 251.706 C 119.215 251.706 111.574 248.291 106.047 242.764 C 100.519 237.236 97.105 229.596 97.105 221.144 C 97.105 212.691 100.519 205.05 106.047 199.523 C 111.574 193.995 119.214 190.581 127.667 190.581 C 136.12 190.581 143.76 193.995 149.288 199.523 C 154.816 205.05 158.23 212.691 158.23 221.144 C 158.23 229.596 154.816 237.236 149.288 242.764 C 143.76 248.291 136.12 251.706 127.667 251.706 Z M 249.917 251.706 C 241.465 251.706 233.824 248.291 228.297 242.764 C 222.769 237.236 219.355 229.596 219.355 221.144 C 219.355 212.691 222.769 205.05 228.297 199.523 C 233.824 193.995 241.465 190.581 249.917 190.581 C 258.37 190.581 266.01 193.995 271.538 199.523 C 277.066 205.05 280.48 212.691 280.48 221.144 C 280.48 229.596 277.066 237.236 271.538 242.764 C 266.01 248.291 258.369 251.706 249.917 251.706 Z M 372.167 251.706 C 363.715 251.706 356.074 248.291 350.547 242.764 C 345.019 237.236 341.605 229.596 341.605 221.144 C 341.605 212.691 345.019 205.05 350.547 199.523 C 356.074 193.995 363.715 190.581 372.167 190.581 C 380.619 190.581 388.26 193.995 393.788 199.523 C 399.316 205.05 402.73 212.691 402.73 221.144 C 402.73 229.596 399.316 237.236 393.788 242.764 C 388.26 248.291 380.619 251.706 372.167 251.706 Z"/>
</svg>
